<svg xmlns="http://www.w3.org/2000/svg" enable-background="new 0 0 50 50" viewBox="0 0 50 50"><path fill="#919191" d="M41.8043 3.7174c1.0206 0 1.8071.9213 1.63 1.9264-.4019 2.2806-1.504 4.3195-3.0714 5.8869-1.9973 1.9974-4.7604 3.2288-7.8133 3.2288H17.4509c-5.4487 0-9.9745-3.9312-10.8853-9.1165C6.389 4.6381 7.1754 3.7174 8.1957 3.7174H41.8043zM41.8043 19.4789c1.0206 0 1.8071.9213 1.63 1.9264-.4019 2.2806-1.504 4.3195-3.0714 5.8869-1.9973 1.9974-4.7604 3.2288-7.8133 3.2288H17.4509c-5.4487 0-9.9745-3.9312-10.8853-9.1165-.1765-1.0049.6099-1.9256 1.6301-1.9256H41.8043zM41.8043 35.2405c1.0206 0 1.8071.9213 1.63 1.9264-.4019 2.2806-1.504 4.3195-3.0714 5.8869-1.9973 1.9974-4.7604 3.2288-7.8133 3.2288H17.4509c-5.4487 0-9.9745-3.9312-10.8853-9.1165-.1765-1.0049.6099-1.9256 1.6301-1.9256H41.8043z"/><path fill="#545554" d="M34.8653,1.7199v46.5603c0,0.3976-0.3223,0.7198-0.7198,0.7198H15.8551
		c-0.3976,0-0.7199-0.3223-0.7199-0.7198V1.7199C15.1352,1.3223,15.4575,1,15.8551,1h18.2903
		C34.543,1,34.8653,1.3223,34.8653,1.7199z"/><rect width="15.73" height="44" x="17.135" y="3" fill="#666466"/><circle cx="25" cy="10.323" r="5.846" fill="#EF4C4A"/><circle cx="25" cy="25" r="5.846" fill="#FBD178"/><circle cx="25" cy="39.677" r="5.846" fill="#66BB6A"/></svg>